<svg xmlns="http://www.w3.org/2000/svg" viewBox="0 0 48 48" width="48" height="48">
  <!-- Yellow/Amber Dotted Cross Icon (Arenq) -->
  <g fill="#e5a712">
    <!-- Center (0,0) -->
    <circle cx="24" cy="24" r="4.0" />
    
    <!-- Level 1 -->
    <circle cx="24" cy="17" r="3.2" />
    <circle cx="24" cy="31" r="3.2" />
    <circle cx="31" cy="24" r="3.2" />
    <circle cx="17" cy="24" r="3.2" />
    <circle cx="31" cy="17" r="3.2" />
    <circle cx="17" cy="17" r="3.2" />
    <circle cx="31" cy="31" r="3.2" />
    <circle cx="17" cy="31" r="3.2" />
    
    <!-- Level 2 -->
    <circle cx="24" cy="10" r="2.4" />
    <circle cx="24" cy="38" r="2.4" />
    <circle cx="38" cy="24" r="2.4" />
    <circle cx="10" cy="24" r="2.4" />
    <circle cx="38" cy="17" r="2.4" />
    <circle cx="10" cy="17" r="2.4" />
    <circle cx="38" cy="31" r="2.4" />
    <circle cx="10" cy="31" r="2.4" />
    <circle cx="31" cy="10" r="2.4" />
    <circle cx="17" cy="10" r="2.4" />
    <circle cx="31" cy="38" r="2.4" />
    <circle cx="17" cy="38" r="2.4" />
    
    <!-- Level 3 -->
    <circle cx="24" cy="3" r="1.5" />
    <circle cx="24" cy="45" r="1.5" />
    <circle cx="45" cy="24" r="1.5" />
    <circle cx="3" cy="24" r="1.5" />
  </g>
</svg>