<svg xmlns="http://www.w3.org/2000/svg" viewBox="0 0 320 60" width="320" height="60">
  <!-- Golden Dotted Cross Icon -->
  <g fill="#e5a712">
    <circle cx="35" cy="30" r="4.8" />
    <circle cx="35" cy="21.5" r="4.0" />
    <circle cx="35" cy="38.5" r="4.0" />
    <circle cx="43.5" cy="30" r="4.0" />
    <circle cx="26.5" cy="30" r="4.0" />
    <circle cx="43.5" cy="21.5" r="4.0" />
    <circle cx="26.5" cy="21.5" r="4.0" />
    <circle cx="43.5" cy="38.5" r="4.0" />
    <circle cx="26.5" cy="38.5" r="4.0" />
    <circle cx="35" cy="13" r="3.0" />
    <circle cx="35" cy="47" r="3.0" />
    <circle cx="52" cy="30" r="3.0" />
    <circle cx="18" cy="30" r="3.0" />
    <circle cx="52" cy="21.5" r="3.0" />
    <circle cx="18" cy="21.5" r="3.0" />
    <circle cx="52" cy="38.5" r="3.0" />
    <circle cx="18" cy="38.5" r="3.0" />
    <circle cx="43.5" cy="13" r="3.0" />
    <circle cx="26.5" cy="13" r="3.0" />
    <circle cx="43.5" cy="47" r="3.0" />
    <circle cx="26.5" cy="47" r="3.0" />
    <circle cx="35" cy="4.5" r="1.8" />
    <circle cx="35" cy="55.5" r="1.8" />
    <circle cx="60.5" cy="30" r="1.8" />
    <circle cx="9.5" cy="30" r="1.8" />
  </g>
  
  <!-- Sunlit Power Wordmark -->
  <text x="76" y="32" font-family="'Inter', sans-serif" font-weight="800" font-size="20" fill="#1E3A8A" letter-spacing="0.5">SUNLIT</text>
  <text x="153" y="32" font-family="'Inter', sans-serif" font-weight="800" font-size="20" fill="#F97316" letter-spacing="0.5">POWER</text>
  <text x="76" y="47" font-family="'Inter', sans-serif" font-weight="600" font-size="8.5" fill="#64748B" letter-spacing="1">SERVICE &amp; COMPLAINT PORTAL</text>
</svg>
